HIERARCHY
ROOT Hips
{
	OFFSET 0.00000 0.00000 0.00000
	CHANNELS 6 Xposition Yposition Zposition Zrotation Yrotation Xrotation 
	JOINT LHipJoint
	{
		OFFSET 0 0 0
		CHANNELS 3 Zrotation Yrotation Xrotation
		JOINT LeftHip
		{
			OFFSET 1.56741 -1.82513 0.67319
			CHANNELS 3 Zrotation Yrotation Xrotation
			JOINT LeftKnee
			{
				OFFSET 2.35708 -6.47604 0.00000
				CHANNELS 3 Zrotation Yrotation Xrotation
				JOINT LeftAnkle
				{
					OFFSET 2.70636 -7.43567 0.00000
					CHANNELS 3 Zrotation Yrotation Xrotation
					JOINT LeftToe
					{
						OFFSET 0.20427 -0.56122 2.08535
						CHANNELS 3 Zrotation Yrotation Xrotation
						End Site
						{
							OFFSET 0.00000 -0.00000 1.08535
						}
					}
				}
			}
		}
	}
	JOINT RHipJoint
	{
		OFFSET 0 0 0
		CHANNELS 3 Zrotation Yrotation Xrotation
		JOINT RightHip
		{
			OFFSET -1.51422 -1.82513 0.67319
			CHANNELS 3 Zrotation Yrotation Xrotation
			JOINT RightKnee
			{
				OFFSET -2.48824 -6.83638 0.00000
				CHANNELS 3 Zrotation Yrotation Xrotation
				JOINT RightAnkle
				{
					OFFSET -2.70033 -7.41909 0.00000
					CHANNELS 3 Zrotation Yrotation Xrotation
					JOINT RightToe
					{
						OFFSET -0.19750 -0.54263 2.22151
						CHANNELS 3 Zrotation Yrotation Xrotation
						End Site
						{
							OFFSET -0.00000 -0.00000 1.14915
						}
					}
				}
			}
		}
	}
	JOINT lowerback
	{
		OFFSET 0 0 0
		CHANNELS 3 Zrotation Yrotation Xrotation
		JOINT Chest
		{
			OFFSET -0.01567 2.12874 -0.15842
			CHANNELS 3 Zrotation Yrotation Xrotation
			JOINT Chest2
			{
				OFFSET 0.06098 2.13326 -0.01043
				CHANNELS 3 Zrotation Yrotation Xrotation
				JOINT lowerneck
				{
					OFFSET 0 0 0
					CHANNELS 3 Zrotation Yrotation Xrotation
					JOINT Neck
					{
						OFFSET -0.05040 1.78432 0.13387
						CHANNELS 3 Zrotation Yrotation Xrotation
						JOINT Head
						{
							OFFSET -0.00180 1.76880 -0.33303
							CHANNELS 3 Zrotation Yrotation Xrotation
							End Site
							{
								OFFSET 0.00734 1.81249 -0.12719
							}
						}
					}
				}
				JOINT LeftCollar
				{
					OFFSET 0 0 0
					CHANNELS 3 Zrotation Yrotation Xrotation
					JOINT LeftShoulder
					{
						OFFSET 3.72199 0.94188 -0.54317
CHANNELS 3 Zrotation Xrotation Yrotation
						JOINT LeftElbow
						{
OFFSET 0 -5.146010 0.000000
CHANNELS 3 Zrotation Xrotation Yrotation
							JOINT LeftWrist
							{
OFFSET 0 -3.644520 -0.000000
CHANNELS 3 Zrotation Xrotation Yrotation
								JOINT lhand
								{
									OFFSET 0 0 0
CHANNELS 3 Zrotation Xrotation Yrotation
									JOINT LFingers
									{
OFFSET 0 -0.562280 0.000000
CHANNELS 3 Zrotation Xrotation Yrotation
										End Site
										{
OFFSET 0 -0.453320 0.000000
										}
									}
								}
								JOINT LThumb
								{
OFFSET 0 0.000000 0.000000
CHANNELS 3 Zrotation Xrotation Yrotation
									End Site
									{
OFFSET 0 -0.460250 0.460250
									}
								}
							}
						}
					}
				}
				JOINT RightCollar
				{
					OFFSET 0 0 0
					CHANNELS 3 Zrotation Yrotation Xrotation
					JOINT RightShoulder
					{
						OFFSET -3.30253 1.22679 -0.46941
CHANNELS 3 Zrotation Xrotation Yrotation
						JOINT RightElbow
						{
OFFSET 0 -5.339130 0.000000
CHANNELS 3 Zrotation Xrotation Yrotation
							JOINT RightWrist
							{
OFFSET 0 -3.564780 -0.000000
CHANNELS 3 Zrotation Xrotation Yrotation
								JOINT rhand
								{
									OFFSET 0 0 0
CHANNELS 3 Zrotation Xrotation Yrotation
									JOINT RFingers
									{
OFFSET 0 -0.857470 0.000000
CHANNELS 3 Zrotation Xrotation Yrotation
										End Site
										{
OFFSET 0 -0.691320 0.000000
										}
									}
								}
								JOINT RThumb
								{
OFFSET 0 0.000000 0.000000
CHANNELS 3 Zrotation Xrotation Yrotation
									End Site
									{
OFFSET 0 -0.701870 0.701870
									}
								}
							}
						}
					}
				}
			}
		}
	}
}
MOTION
Frames: 7
Frame Time: 0.008333333333333333
9.169351 14.769877 36.260820 -712.863399 41.271408 739.963023 0.000000 0.000000 0.000000 -0.168868 -30.039796 -10.410556 8.275970 16.318550 53.550748 -2.930092 -28.777291 8.116681 1.032803 -6.463270 -18.134860 0.000000 0.000000 0.000000 5.555976 10.989528 -72.681928 -15.754580 -19.562294 77.499709 -0.573880 -1.106826 -14.753337 -0.035979 -1.219958 3.354262 0.091195 3.012258 32.174037 0.858557 4.240398 8.098253 -0.709701 2.121977 -8.405286 -4.146286 14.720587 -12.296852 -15.455776 22.320512 6.351993 -2.109974 10.128056 5.308060 0.000000 0.000000 0.000000 7.289815 -0.414296 2.012110 35.515322 -45.176642 15.177704 36.953044 22.580840 -28.053917 0.000000 0.000000 0.000000 -7.125000 0.000000 0.000000 8.399468 63.489058 -3.783924 0.000000 0.000000 0.000000 -18.060373 -12.534243 -6.438297 -65.658204 -57.638235 -39.086543 -35.854316 31.064150 6.463068 0.000000 0.000000 0.000000 7.125000 0.000000 0.000000 -7.796947 37.831224 -1.386093
9.161624 14.691815 36.286449 -711.669411 41.276493 740.775279 0.000000 0.000000 0.000000 -0.971434 -30.397621 -10.368693 8.204850 16.267865 53.297320 -2.961312 -28.897070 8.328948 1.303973 -7.234084 -20.410587 0.000000 0.000000 0.000000 4.863577 9.965096 -73.318900 -16.071059 -19.625759 78.443305 -0.655539 0.072763 -15.276917 -0.069433 -1.699259 4.675155 -1.205868 3.442558 32.833491 0.627394 4.342142 7.673199 -0.286320 2.184673 -8.470825 -3.916470 14.676119 -12.821800 -15.690569 22.435838 7.025637 -2.119371 10.083381 5.671386 0.000000 0.000000 0.000000 6.047941 -0.713020 4.243589 34.756908 -44.637748 14.642318 37.271304 25.564296 -27.925046 0.000000 0.000000 0.000000 -7.125000 0.000000 0.000000 8.853251 63.435295 -3.975511 0.000000 0.000000 0.000000 -18.366975 -12.521782 -5.954244 -65.143851 -57.531664 -38.652350 -35.756627 31.206811 6.652212 0.000000 0.000000 0.000000 7.125000 0.000000 0.000000 -7.723698 38.053636 -1.330446
9.071484 14.844163 36.500266 -712.148159 41.583601 741.162841 0.000000 0.000000 0.000000 0.237693 -30.003536 -9.801877 7.506533 15.743986 50.764929 -2.779332 -27.978046 9.760866 1.319170 -7.274361 -20.530920 0.000000 0.000000 0.000000 6.334360 10.771790 -72.529559 -15.646349 -19.539408 77.176319 -0.630170 -1.633448 -15.674298 -0.022486 -0.957084 2.630792 -1.084251 3.618376 32.927361 0.424650 4.574022 7.571178 -0.655549 2.289315 -8.596229 -4.444887 14.317414 -12.600224 -15.389091 21.753624 5.818363 -2.115550 9.886230 5.118374 0.000000 0.000000 0.000000 6.192109 -0.471056 4.872688 34.351064 -44.343120 14.357865 36.899953 25.229954 -28.004098 0.000000 0.000000 0.000000 -7.125000 0.000000 0.000000 8.332212 63.417638 -3.736092 0.000000 0.000000 0.000000 -18.014285 -12.847259 -5.055575 -65.343976 -57.573484 -38.821191 -35.651876 31.103224 6.562383 0.000000 0.000000 0.000000 7.125000 0.000000 0.000000 -7.628102 37.936591 -1.335951
8.886565 14.841019 36.892887 -710.456942 43.902504 743.778446 0.000000 0.000000 0.000000 1.513374 -31.418219 -10.609585 6.937620 15.278352 48.636573 -2.254903 -25.441364 9.186568 0.978911 -6.297783 -17.651059 0.000000 0.000000 0.000000 7.166747 9.820278 -73.780334 -15.715267 -19.553310 77.381917 -0.641796 -3.599266 -16.876033 -0.384847 -3.955237 10.954600 -2.036206 3.554485 32.499930 -0.002766 4.172572 7.709919 -0.440551 2.126795 -8.508818 -4.511835 13.857973 -14.882406 -14.878875 21.604265 7.609941 -1.746356 9.550764 5.989517 0.000000 0.000000 0.000000 7.125964 -1.273794 5.261505 34.553544 -44.490430 14.499668 37.150235 26.018729 -28.512609 0.000000 0.000000 0.000000 -7.125000 0.000000 0.000000 8.582290 64.060139 -3.979034 0.000000 0.000000 0.000000 -17.387714 -12.993387 -3.550127 -65.015701 -57.504710 -38.544199 -35.788806 31.379069 6.631363 0.000000 0.000000 0.000000 7.125000 0.000000 0.000000 -7.750323 38.030950 -1.339409
8.540429 15.203149 37.534728 -709.612648 48.820902 746.024132 0.000000 0.000000 0.000000 3.456060 -29.593687 -14.468834 7.260697 15.547296 49.853240 -0.462372 -11.940027 4.409948 0.993484 -6.343563 -17.784577 0.000000 0.000000 0.000000 10.838066 9.286993 -71.288969 -14.377028 -19.224451 73.352609 -0.332774 -8.879443 -17.524775 -0.518770 -4.615695 12.815599 -0.635459 2.435368 34.640377 -1.098384 3.087990 6.698530 -2.053083 1.598911 -10.103290 -3.523907 13.420340 -15.379985 -13.641810 20.560835 7.161724 -1.628205 9.150699 5.811802 0.000000 0.000000 0.000000 10.295378 -1.418067 4.302358 35.753894 -45.342978 15.347230 37.772424 25.798614 -29.156554 0.000000 0.000000 0.000000 -7.125000 0.000000 0.000000 9.342482 64.964489 -4.529646 0.000000 0.000000 0.000000 -14.565323 -12.283791 -1.794005 -64.638794 -57.424427 -38.226459 -35.503278 30.821960 6.401399 0.000000 0.000000 0.000000 7.125000 0.000000 0.000000 -7.491149 37.730289 -1.349651
8.277288 15.582590 37.999428 -709.271648 52.277051 748.585649 0.000000 0.000000 0.000000 1.273685 -20.442828 -24.698167 12.067059 18.416399 66.198554 -0.040114 -5.287468 -2.312320 0.829950 -5.809159 -16.232510 0.000000 0.000000 0.000000 14.370952 7.687664 -70.417601 -12.786537 -18.703576 68.461122 -0.321054 -9.462219 -17.999077 -0.942452 -6.180687 17.310321 -1.459943 2.711045 33.459621 0.481696 3.385299 7.090922 -0.003368 1.764018 -9.342972 -5.277494 12.703815 -18.215964 -12.486277 20.544574 10.248152 -0.785244 8.771438 6.979433 0.000000 0.000000 0.000000 7.155324 -2.795397 4.032067 36.101919 -45.583093 15.595213 37.572237 27.044366 -28.221708 0.000000 0.000000 0.000000 -7.125000 0.000000 0.000000 9.219632 63.855646 -4.231952 0.000000 0.000000 0.000000 -17.480938 -13.445992 -1.302041 -64.039771 -57.293702 -37.722069 -35.839996 31.245785 6.509463 0.000000 0.000000 0.000000 7.125000 0.000000 0.000000 -7.787390 37.886632 -1.373743
8.084212 15.741944 38.294112 -711.126563 54.457889 748.606634 0.000000 0.000000 0.000000 -7.113621 -12.116439 -32.784298 18.006775 19.904184 84.163141 -0.275170 -9.274712 3.255626 1.901220 -8.656842 -24.728066 0.000000 0.000000 0.000000 17.540769 8.157117 -69.786348 -11.804684 -18.306826 65.368339 -0.134813 -10.900717 -17.375430 -0.556547 -4.778437 13.277607 -0.543439 2.434342 32.887799 0.936812 3.405736 7.116226 0.003239 1.759427 -9.083239 -6.018319 11.871376 -18.500585 -10.789624 19.155003 9.298476 -0.392744 8.288223 6.397535 0.000000 0.000000 0.000000 7.886526 -2.233456 1.213782 35.605081 -45.239078 15.241525 38.549329 27.108452 -29.337623 0.000000 0.000000 0.000000 -7.125000 0.000000 0.000000 10.439052 65.398402 -5.171485 0.000000 0.000000 0.000000 -18.068184 -14.495611 -0.790651 -65.453521 -57.596211 -38.913700 -35.666748 30.306569 5.718188 0.000000 0.000000 0.000000 7.125000 0.000000 0.000000 -7.591438 36.912444 -1.521039
